# xmcd CD database file
#
# Track frame offsets:
#	150
#	19321
#	37277
#	57572
#	81404
#	101147
#	118948
#	135582
#	161822
#	169847
#	189159
#
# Disc length: 2997 seconds
#
# Revision: 1
# Processed by: cddbd v1.5.2PL0 Copyright (c) Steve Scherf et al.
# Submitted via: CDex 1.70beta2
#
DISCID=a10bb30b
DTITLE=Janis Joplin - Legendary Rock Stars
DYEAR=1999
DGENRE=Rock
TTITLE0=Piece of my heart
TTITLE1=Summertime
TTITLE2=Me and Bobby McGee
TTITLE3=To love somebody
TTITLE4=Kozmic blues
TTITLE5=Cry baby
TTITLE6=Move over
TTITLE7=Combination of the two
TTITLE8=Mercedes Benz
TTITLE9=Oh, Sweet Mary
TTITLE10=Ball and chain
EXTD=YEAR: 1999
EXTT0=
EXTT1=
EXTT2=
EXTT3=
EXTT4=
EXTT5=
EXTT6=
EXTT7=
EXTT8=
EXTT9=
EXTT10=
PLAYORDER=
